<?xml version="1.0" encoding="UTF-8"?>
<!DOCTYPE svg PUBLIC "-//W3C//DTD SVG 1.1//EN" "http://www.w3.org/Graphics/SVG/1.1/DTD/svg11.dtd">
<!-- Creator: CorelDRAW -->
<svg xmlns="http://www.w3.org/2000/svg" xml:space="preserve" width="19.3423mm" height="13.6753mm" version="1.1" style="shape-rendering:geometricPrecision; text-rendering:geometricPrecision; image-rendering:optimizeQuality; fill-rule:evenodd; clip-rule:evenodd"
viewBox="0 0 512.68 362.48"
 xmlns:xlink="http://www.w3.org/1999/xlink"
 xmlns:xodm="http://www.corel.com/coreldraw/odm/2003">
 <defs>
  <style type="text/css">
   <![CDATA[
    .fil1 {fill:#47BEA0}
    .fil0 {fill:#E8D9CF}
   ]]>
  </style>
 </defs>
 <g id="Camada_x0020_1">
  <metadata id="CorelCorpID_0Corel-Layer"/>
  <path class="fil0" d="M407.6 100.55c-31.9,2.19 -186.41,187.4 -212.47,194.9 -10.52,0.27 -33.9,-3.05 -42.44,-6.89 -28.2,-12.71 13.18,-99.79 16.01,-106.15 9.49,-14.17 -6.03,-35.43 14.24,-31.17 11.47,6.02 16.46,47.33 19.97,63.2 25.55,-5.57 115.22,-106.34 149.54,-131.61 11.74,-8.65 22.62,-0.29 26.96,-12.12 -32.07,-17.81 -65.55,-61.07 -143.66,-61.18 -134.46,-0.18 -346.15,144.71 -166.74,269.36 70.67,49.1 171.18,111.17 281.97,70.32 99.57,-36.7 129.35,-151.88 56.61,-248.66z"/>
  <path class="fil1" d="M352.47 82.83c-34.32,25.27 -123.98,126.04 -149.54,131.61 -3.51,-15.87 -8.5,-57.18 -19.97,-63.2 -51.83,-22.23 -84.2,186.9 12.18,144.21 19.6,-5.64 114.83,-108.85 174.39,-160.58 21.88,-19 63.06,-53.22 85.68,-69.73 24.79,-18.1 51.85,-36.55 57.47,-54.46 -30.99,-22.25 -62.86,-5.92 -89.74,14.08 -24.7,18.37 -48.16,41.63 -70.48,58.06z"/>
 </g>
</svg>
